<svg version="1.1" viewBox="0.0 0.0 401.4514435695538 532.4645669291339" fill="none" stroke="none" stroke-linecap="square" stroke-miterlimit="10" xmlns:xlink="http://www.w3.org/1999/xlink" xmlns="http://www.w3.org/2000/svg"><clipPath id="p.0"><path d="m0 0l401.45145 0l0 532.46454l-401.45145 0l0 -532.46454z" clip-rule="nonzero"/></clipPath><g clip-path="url(#p.0)"><path fill="#000000" fill-opacity="0.0" d="m0 0l401.45145 0l0 532.46454l-401.45145 0z" fill-rule="evenodd"/><path fill="#cc0000" d="m337.73358 63.52741l0 0c74.54541 74.545395 73.635864 196.3169 -2.0314941 271.98425q-80.612686 80.6127 -137.36694 185.0838q-55.19989 -103.63489 -134.6173 -183.0523l0 0c-74.545395 -74.54538 -73.635864 -196.31688 2.0314941 -271.98425l0 0c75.66736 -75.66736 197.43886 -76.57689 271.98425 -2.031498z" fill-rule="evenodd"/><path stroke="#000000" stroke-width="12.0" stroke-linejoin="round" stroke-linecap="butt" d="m337.73358 63.52741l0 0c74.54541 74.545395 73.635864 196.3169 -2.0314941 271.98425q-80.612686 80.6127 -137.36694 185.0838q-55.19989 -103.63489 -134.6173 -183.0523l0 0c-74.545395 -74.54538 -73.635864 -196.31688 2.0314941 -271.98425l0 0c75.66736 -75.66736 197.43886 -76.57689 271.98425 -2.031498z" fill-rule="evenodd"/><path fill="#ffffff" d="m82.5538 200.53543l0 0c0 -62.06462 52.90796 -112.37795 118.17323 -112.37795l0 0c31.341492 0 61.399307 11.83979 83.56108 32.91474c22.161774 21.074951 34.612152 49.658722 34.612152 79.46321l0 0c0 62.064636 -52.90796 112.37796 -118.17323 112.37796l0 0c-65.265274 0 -118.17323 -50.313324 -118.17323 -112.37796z" fill-rule="evenodd"/><path stroke="#000000" stroke-width="8.0" stroke-linejoin="round" stroke-linecap="butt" d="m82.5538 200.53543l0 0c0 -62.06462 52.90796 -112.37795 118.17323 -112.37795l0 0c31.341492 0 61.399307 11.83979 83.56108 32.91474c22.161774 21.074951 34.612152 49.658722 34.612152 79.46321l0 0c0 62.064636 -52.90796 112.37796 -118.17323 112.37796l0 0c-65.265274 0 -118.17323 -50.313324 -118.17323 -112.37796z" fill-rule="evenodd"/></g></svg>